<?xml version="1.0" encoding="UTF-8" standalone="no"?>
<!-- Generator: Adobe Illustrator 17.0.0, SVG Export Plug-In . SVG Version: 6.00 Build 0)  -->

<svg
   xmlns:osb="http://www.openswatchbook.org/uri/2009/osb"
   xmlns:dc="http://purl.org/dc/elements/1.1/"
   xmlns:cc="http://creativecommons.org/ns#"
   xmlns:rdf="http://www.w3.org/1999/02/22-rdf-syntax-ns#"
   xmlns:svg="http://www.w3.org/2000/svg"
   xmlns="http://www.w3.org/2000/svg"
   xmlns:xlink="http://www.w3.org/1999/xlink"
   xmlns:sodipodi="http://sodipodi.sourceforge.net/DTD/sodipodi-0.dtd"
   xmlns:inkscape="http://www.inkscape.org/namespaces/inkscape"
   version="1.1"
   id="Layer_1"
   x="0px"
   y="0px"
   width="605.60187"
   height="470.31635"
   viewBox="0 0 605.60187 470.31635"
   enable-background="new 0 0 478 86"
   xml:space="preserve"
   sodipodi:docname="logo.svg"
   inkscape:version="0.92.4 (5da689c313, 2019-01-14)"><metadata
   id="metadata9"><rdf:RDF><cc:Work
       rdf:about=""><dc:format>image/svg+xml</dc:format><dc:type
         rdf:resource="http://purl.org/dc/dcmitype/StillImage" /></cc:Work></rdf:RDF></metadata><defs
   id="defs7"><linearGradient
     inkscape:collect="always"
     xlink:href="#linearGradient960"
     id="linearGradient1002"
     gradientUnits="userSpaceOnUse"
     gradientTransform="matrix(2.4487967,0,0,2.4487967,-51.499394,-88.768342)" /><linearGradient
     id="linearGradient960"
     osb:paint="solid"><stop
       style="stop-color:#285808;stop-opacity:1;"
       offset="0"
       id="stop958" /></linearGradient><linearGradient
     id="linearGradient954"
     osb:paint="solid"
     gradientTransform="matrix(5.048992e-5,0,0,5.048992e-5,14506.409,16037.501)"><stop
       style="stop-color:#5ba22d;stop-opacity:1;"
       offset="0"
       id="stop952" /></linearGradient></defs><sodipodi:namedview
   pagecolor="#ffffff"
   bordercolor="#666666"
   borderopacity="1"
   objecttolerance="10"
   gridtolerance="10"
   guidetolerance="10"
   inkscape:pageopacity="0"
   inkscape:pageshadow="2"
   inkscape:window-width="1366"
   inkscape:window-height="705"
   id="namedview5"
   showgrid="false"
   inkscape:zoom="0.22263509"
   inkscape:cx="111.44908"
   inkscape:cy="697.61394"
   inkscape:window-x="-8"
   inkscape:window-y="-8"
   inkscape:window-maximized="1"
   inkscape:current-layer="Layer_1" />

<g
   aria-label="N TK"
   transform="matrix(1.5195521,0,0,1.5195521,-149.15008,-371.82695)"
   style="font-style:normal;font-variant:normal;font-weight:normal;font-stretch:normal;font-size:226.66667175px;line-height:1.25;font-family:Oswald;-inkscape-font-specification:Oswald;letter-spacing:0px;word-spacing:0px;fill:#ffffff;fill-opacity:1;stroke:none"
   id="flowRoot961"><path
     d="m 119.05539,458.63441 v -183.6 h 17.45333 l 52.13334,121.94667 V 275.03441 h 21.30667 v 183.6 h -16.32 L 140.81539,333.28774 v 125.34667 z"
     style="fill:#ffffff"
     id="path897" /><path
     d="m 310.55685,458.63441 v -164.56 h -31.05333 v -19.04 h 86.81333 v 19.04 h -30.14667 v 164.56 z"
     style="fill:#ffffff"
     id="path899" /><path
     d="m 383.79498,458.63441 v -183.6 h 25.61334 v 86.58667 l 42.16,-86.58667 h 23.8 l -36.26667,80.92 42.16,102.68 h -24.93333 l -35.13333,-86.13333 -11.78667,21.30666 v 64.82667 z"
     style="fill:#ffffff"
     id="path901" /></g><path
   sodipodi:nodetypes="ccccccccc"
   inkscape:connector-curvature="0"
   id="path963"
   d="m 212.56291,126.28755 c 10.70649,-8.2909 25.48744,-11.12795 38.43299,-7.00442 5.31687,1.47859 10.40069,3.67116 15.37939,6.02806 2.51422,7.31814 -0.53132,20.21176 -4.00695,26.98087 -16.83925,-7.55032 -35.68506,-6.37121 -50.55549,2.44488 -2.61044,-2.06066 -2.97464,-5.91506 -3.89786,-8.95162 -1.0649,-5.99207 -0.77276,-12.83172 3.2604,-17.72898 0.4473,-0.60137 0.91284,-1.18892 1.38752,-1.76886 z"
   style="fill:url(#linearGradient1002);fill-opacity:1;stroke:none;stroke-width:0.33424094px;stroke-linecap:butt;stroke-linejoin:miter;stroke-opacity:1" /><rect
   inkscape:export-ydpi="96"
   inkscape:export-xdpi="96"
   ry="1.0222925"
   y="97.443169"
   x="217.08356"
   height="229.63005"
   width="43.368889"
   id="rect965"
   style="opacity:1;fill:#ffffff;fill-opacity:1;stroke:none;stroke-width:3.59837294;stroke-linecap:square;stroke-linejoin:round;stroke-miterlimit:4;stroke-dasharray:none;stroke-dashoffset:0;stroke-opacity:1;paint-order:fill markers stroke" /><rect
   inkscape:export-ydpi="96"
   inkscape:export-xdpi="96"
   ry="1.3779325"
   y="89.761292"
   x="208.1561"
   height="6.6427164"
   width="61.332855"
   id="rect967"
   style="opacity:1;fill:#ffffff;fill-opacity:1;stroke:none;stroke-width:4.1776557;stroke-linecap:square;stroke-linejoin:round;stroke-miterlimit:4;stroke-dasharray:none;stroke-dashoffset:0;stroke-opacity:1;paint-order:fill markers stroke" /><rect
   inkscape:export-ydpi="96"
   inkscape:export-xdpi="96"
   ry="1.3779325"
   y="60.743088"
   x="224.74094"
   height="26.570866"
   width="27.537199"
   id="rect969"
   style="opacity:1;fill:#ffffff;fill-opacity:1;stroke:none;stroke-width:4.1776557;stroke-linecap:square;stroke-linejoin:round;stroke-miterlimit:4;stroke-dasharray:none;stroke-dashoffset:0;stroke-opacity:1;paint-order:fill markers stroke" /><rect
   inkscape:export-ydpi="96"
   inkscape:export-xdpi="96"
   transform="matrix(0.91352614,-0.40678002,0.33598392,0.94186772,0,0)"
   ry="1.3590198"
   y="119.7043"
   x="200.84691"
   height="2.7585444"
   width="30.547459"
   id="rect971"
   style="opacity:1;fill:#000000;fill-opacity:1;stroke:#ffffff;stroke-width:4.18374205;stroke-linecap:square;stroke-linejoin:round;stroke-miterlimit:4;stroke-dasharray:none;stroke-dashoffset:0;stroke-opacity:1;paint-order:fill markers stroke" /><path
   inkscape:export-ydpi="96"
   inkscape:export-xdpi="96"
   sodipodi:nodetypes="sssssssss"
   inkscape:connector-curvature="0"
   id="path973"
   d="m 219.09002,45.709578 c 17.51947,-22.885955 32.84002,-8.21421 39.15213,0 0.44508,0.579408 1.23333,0.61458 1.23333,1.377946 v 40.247048 c 0,0.763338 -0.55011,1.377964 -1.23333,1.377964 h -39.15213 c -0.68328,0 -1.23328,-0.614626 -1.23328,-1.377964 V 47.087524 c 0,-0.763366 0.78914,-0.797729 1.23328,-1.377946 z"
   style="opacity:1;fill:none;fill-opacity:1;stroke:#ffffff;stroke-width:1.22511899;stroke-linecap:square;stroke-linejoin:round;stroke-miterlimit:4;stroke-dasharray:none;stroke-dashoffset:0;stroke-opacity:1;paint-order:fill markers stroke" /><path
   inkscape:export-ydpi="96"
   inkscape:export-xdpi="96"
   sodipodi:nodetypes="cccc"
   inkscape:connector-curvature="0"
   id="path975"
   d="M 208.15609,89.761303 V 76.475874 l 61.33285,-0.34991 v 13.635085"
   style="fill:none;stroke:#ffffff;stroke-width:0.98884583;stroke-linecap:butt;stroke-linejoin:miter;stroke-miterlimit:4;stroke-dasharray:none;stroke-opacity:1" /><path
   inkscape:export-ydpi="96"
   inkscape:export-xdpi="96"
   inkscape:connector-curvature="0"
   id="path977"
   d="m 238.90456,26.131114 c 0.29369,43.838521 -0.29369,43.838521 -0.29369,43.838521"
   style="fill:none;stroke:#ffffff;stroke-width:4.82475901;stroke-linecap:butt;stroke-linejoin:miter;stroke-miterlimit:4;stroke-dasharray:none;stroke-opacity:1" /><path
   sodipodi:nodetypes="ccccccc"
   inkscape:connector-curvature="0"
   id="path979"
   d="m 146.95388,350.60989 c 13.9083,-13.92946 42.32893,-12.34519 47.98074,6.99015 24.2535,-55.23609 58.28071,-110.57877 88.23265,-169.13911 6.29014,-11.77018 2.9102,-24.50824 -0.80392,-36.42944 -1.73726,-7.95345 -10.58229,-26.29869 -13.95447,-25.5559 2.21859,15.0496 -5.63769,29.90178 -13.53346,43.91034 -26.63782,52.01966 -66.84751,133.07802 -107.92154,180.22396 z"
   style="fill:url(#linearGradient954);stroke:none;stroke-width:0.33424094px;stroke-linecap:butt;stroke-linejoin:miter;stroke-opacity:1" /><path
   sodipodi:nodetypes="cccccccc"
   inkscape:connector-curvature="0"
   id="path981"
   d="m 208.27697,129.62105 c -7.82251,15.67387 -10.83044,33.30093 -11.73631,50.65714 -0.47085,8.21806 2.85178,15.92532 5.44504,23.53921 4.14246,11.15349 10.80508,21.67778 15.195,32.73128 8.04678,-11.58206 12.76528,-24.05163 18.95491,-36.68581 -8.42535,-13.88222 -16.91516,-27.72561 -25.23945,-41.66886 -2.2691,-7.06246 -5.7392,-14.00399 -4.07661,-21.62924 0.72869,-2.19687 1.31624,-4.58844 1.45742,-6.94372 z"
   style="fill:url(#linearGradient954);stroke:none;stroke-width:0.33424094px;stroke-linecap:butt;stroke-linejoin:miter;stroke-opacity:1" /><path
   sodipodi:nodetypes="cccccc"
   inkscape:connector-curvature="0"
   id="path983"
   d="m 240.50917,278.10676 c 7.0639,-13.81024 12.89508,-23.92235 19.95891,-37.73264 9.18032,24.76809 76.28266,109.85593 72.35976,105.46151 -9.15695,-11.22907 -37.81332,-6.74004 -37.66978,5.41715 -17.9566,-25.87439 -43.21971,-47.27169 -54.64889,-73.14608 z"
   style="fill:url(#linearGradient954);stroke:none;stroke-width:0.33424094px;stroke-linecap:butt;stroke-linejoin:miter;stroke-opacity:1" /><g
   aria-label="CONT NUE"
   transform="matrix(2.8876931,0,0,2.6536417,-287.57533,-1657.7188)"
   style="font-style:normal;font-variant:normal;font-weight:normal;font-stretch:normal;font-size:40px;line-height:1.25;font-family:Crushed;-inkscape-font-specification:Crushed;letter-spacing:3.12697959px;word-spacing:0px;fill:#ffffff;fill-opacity:1;stroke:none"
   id="flowRoot991"><path
     d="m 131.66602,776.04935 q 0,2.8125 0.44921,4.98047 0.44922,2.14844 1.26954,3.61328 0.83984,1.46484 1.99218,2.22656 1.17188,0.74219 2.59766,0.74219 0.85937,0 1.52344,-0.21484 0.66406,-0.21485 1.1914,-0.52735 0.54688,-0.33203 1.01563,-0.72265 0.46875,-0.41016 0.91797,-0.78125 v 3.92578 q -1.09375,0.27344 -2.20703,0.42969 -1.09375,0.17578 -2.44141,0.17578 -2.08984,0 -3.86719,-0.83985 -1.77734,-0.83984 -3.08594,-2.53906 -1.28906,-1.71875 -2.03125,-4.31641 -0.72265,-2.61718 -0.72265,-6.15234 0,-3.53516 0.76172,-6.13281 0.78125,-2.61719 2.08984,-4.31641 1.32813,-1.71875 3.08594,-2.55859 1.77734,-0.83985 3.76953,-0.83985 1.34766,0 2.44141,0.17579 1.11328,0.15625 2.20703,0.42968 v 3.92578 q -0.44922,-0.37109 -0.91797,-0.76171 -0.46875,-0.41016 -1.01563,-0.72266 -0.52734,-0.33203 -1.1914,-0.54688 -0.66407,-0.21484 -1.52344,-0.21484 -1.42578,0 -2.59766,0.76172 -1.15234,0.74219 -1.99218,2.20703 -0.82032,1.46484 -1.26954,3.63281 -0.44921,2.14844 -0.44921,4.96094 z"
     style="font-style:normal;font-variant:normal;font-weight:normal;font-stretch:normal;font-family:Crushed;-inkscape-font-specification:Crushed;letter-spacing:3.12697959px;fill:#ffffff"
     id="path904" /><path
     d="m 164.94925,776.04935 q 0,3.61328 -0.64454,6.25 -0.64453,2.61719 -1.79687,4.33594 -1.13281,1.69922 -2.67578,2.51953 -1.54297,0.82031 -3.32031,0.82031 -1.79688,0 -3.33985,-0.82031 -1.54297,-0.82031 -2.69531,-2.51953 -1.13281,-1.71875 -1.79688,-4.33594 -0.64453,-2.63672 -0.64453,-6.25 0,-3.59375 0.64453,-6.21094 0.66407,-2.63672 1.79688,-4.35547 1.15234,-1.71875 2.69531,-2.53906 1.54297,-0.82031 3.33985,-0.82031 1.77734,0 3.32031,0.82031 1.54297,0.82031 2.67578,2.53906 1.15234,1.71875 1.79687,4.35547 0.64454,2.61719 0.64454,6.21094 z m -3.35938,0 q 0,-3.00781 -0.39062,-5.19531 -0.39063,-2.1875 -1.07422,-3.59375 -0.6836,-1.42578 -1.6211,-2.08985 -0.91797,-0.68359 -1.99218,-0.68359 -1.09375,0 -2.03125,0.68359 -0.91797,0.66407 -1.6211,2.08985 -0.68359,1.40625 -1.07422,3.59375 -0.39062,2.1875 -0.39062,5.19531 0,3.02734 0.39062,5.21484 0.39063,2.1875 1.07422,3.59375 0.70313,1.40625 1.6211,2.08985 0.9375,0.66406 2.03125,0.66406 1.07421,0 1.99218,-0.66406 0.9375,-0.6836 1.6211,-2.08985 0.68359,-1.40625 1.07422,-3.59375 0.39062,-2.1875 0.39062,-5.21484 z"
     style="font-style:normal;font-variant:normal;font-weight:normal;font-stretch:normal;font-family:Crushed;-inkscape-font-specification:Crushed;letter-spacing:3.12697959px;fill:#ffffff"
     id="path906" /><path
     d="m 186.06451,762.61185 q -0.11719,1.66016 -0.19532,3.39844 -0.0586,1.73828 -0.0977,3.45703 -0.0391,1.71875 -0.0586,3.37891 -0.0195,1.66015 -0.0195,3.16406 0,1.5039 0.0195,3.16406 0.0195,1.66016 0.0586,3.39844 0.0391,1.71875 0.0977,3.47656 0.0586,1.73828 0.15625,3.39844 h -3.61328 q -0.99609,-2.8711 -1.95312,-5.46875 -0.95703,-2.59766 -1.91406,-5.01953 -0.9375,-2.44141 -1.875,-4.7461 -0.9375,-2.32422 -1.875,-4.60937 h -0.13672 q -0.0391,1.69922 -0.0391,3.32031 0.0195,1.60156 0.0195,3.08594 0,1.5039 0.0195,3.16406 0.0195,1.66016 0.0586,3.39844 0.0391,1.71875 0.0977,3.47656 0.0586,1.73828 0.15625,3.39844 h -3.57422 q 0.11719,-1.66016 0.17578,-3.39844 0.0781,-1.75781 0.11719,-3.47656 0.0391,-1.73828 0.0586,-3.39844 0.0195,-1.66016 0.0195,-3.16406 0,-1.50391 -0.0195,-3.16406 -0.0195,-1.66016 -0.0586,-3.37891 -0.0391,-1.71875 -0.11719,-3.45703 -0.0586,-1.73828 -0.17578,-3.39844 h 3.65234 q 1.97266,5.74219 3.86719,10.83984 1.89453,5.09766 3.78906,9.66797 h 0.13672 q 0.0195,-0.85937 0.0195,-1.79687 0,-0.9375 -0.0195,-1.85547 0,-0.9375 -0.0195,-1.81641 0,-0.8789 0,-1.64062 0,-1.50391 -0.0195,-3.16406 -0.0195,-1.66016 -0.0586,-3.37891 -0.0391,-1.71875 -0.11718,-3.45703 -0.0586,-1.73828 -0.17578,-3.39844 z"
     style="font-style:normal;font-variant:normal;font-weight:normal;font-stretch:normal;font-family:Crushed;-inkscape-font-specification:Crushed;letter-spacing:3.12697959px;fill:#ffffff"
     id="path908" /><path
     d="m 191.45711,762.61185 h 13.3789 v 2.28516 h -4.98046 q -0.15625,2.87109 -0.19532,5.74218 -0.0391,2.8711 -0.0391,5.3711 0,1.5039 0.0195,3.16406 0.0195,1.66016 0.0586,3.39844 0.0391,1.71875 0.0977,3.47656 0.0586,1.73828 0.15625,3.39844 h -3.65234 q 0.11719,-1.66016 0.17578,-3.39844 0.0781,-1.75781 0.11719,-3.47656 0.0391,-1.73828 0.0586,-3.39844 0.0195,-1.66016 0.0195,-3.16406 0,-2.5 -0.0586,-5.3711 -0.0391,-2.87109 -0.17578,-5.74218 h -4.98047 z"
     style="font-style:normal;font-variant:normal;font-weight:normal;font-stretch:normal;font-family:Crushed;-inkscape-font-specification:Crushed;letter-spacing:3.12697959px;fill:#ffffff"
     id="path910" /><path
     d="m 235.83607,762.61185 q -0.11719,1.66016 -0.19532,3.39844 -0.0586,1.73828 -0.0976,3.45703 -0.0391,1.71875 -0.0586,3.37891 -0.0195,1.66015 -0.0195,3.16406 0,1.5039 0.0195,3.16406 0.0195,1.66016 0.0586,3.39844 0.0391,1.71875 0.0976,3.47656 0.0586,1.73828 0.15625,3.39844 h -3.61328 q -0.99609,-2.8711 -1.95312,-5.46875 -0.95703,-2.59766 -1.91406,-5.01953 -0.9375,-2.44141 -1.875,-4.7461 -0.9375,-2.32422 -1.875,-4.60937 h -0.13672 q -0.0391,1.69922 -0.0391,3.32031 0.0195,1.60156 0.0195,3.08594 0,1.5039 0.0195,3.16406 0.0195,1.66016 0.0586,3.39844 0.0391,1.71875 0.0977,3.47656 0.0586,1.73828 0.15625,3.39844 h -3.57422 q 0.11719,-1.66016 0.17578,-3.39844 0.0781,-1.75781 0.11719,-3.47656 0.0391,-1.73828 0.0586,-3.39844 0.0195,-1.66016 0.0195,-3.16406 0,-1.50391 -0.0195,-3.16406 -0.0195,-1.66016 -0.0586,-3.37891 -0.0391,-1.71875 -0.11719,-3.45703 -0.0586,-1.73828 -0.17578,-3.39844 h 3.65234 q 1.97266,5.74219 3.86719,10.83984 1.89453,5.09766 3.78906,9.66797 h 0.13672 q 0.0195,-0.85937 0.0195,-1.79687 0,-0.9375 -0.0195,-1.85547 0,-0.9375 -0.0195,-1.81641 0,-0.8789 0,-1.64062 0,-1.50391 -0.0195,-3.16406 -0.0195,-1.66016 -0.0586,-3.37891 -0.0391,-1.71875 -0.11718,-3.45703 -0.0586,-1.73828 -0.17578,-3.39844 z"
     style="font-style:normal;font-variant:normal;font-weight:normal;font-stretch:normal;font-family:Crushed;-inkscape-font-specification:Crushed;letter-spacing:3.12697959px;fill:#ffffff"
     id="path912" /><path
     d="m 250.31071,787.59232 q 1.09375,0 1.89453,-0.42969 0.80078,-0.42969 1.32812,-1.23047 0.52735,-0.80078 0.78125,-1.95312 0.27344,-1.17188 0.27344,-2.61719 v -6.30859 q 0,-2.96875 -0.0781,-6.09375 -0.0586,-3.14453 -0.27344,-6.34766 h 3.67187 q -0.17578,3.22266 -0.27343,6.36719 -0.0781,3.14453 -0.0781,6.07422 v 6.30859 q 0,2.03125 -0.44922,3.63281 -0.44922,1.60157 -1.34765,2.71485 -0.89844,1.11328 -2.26563,1.71875 -1.34766,0.58593 -3.18359,0.58593 -1.83594,0 -3.20313,-0.58593 -1.34765,-0.60547 -2.24609,-1.71875 -0.89844,-1.11328 -1.34766,-2.71485 -0.44922,-1.60156 -0.44922,-3.63281 v -6.30859 q 0,-2.92969 -0.0976,-6.07422 -0.0781,-3.14453 -0.25391,-6.36719 h 3.67188 q -0.21485,3.20313 -0.29297,6.34766 -0.0586,3.125 -0.0586,6.09375 v 6.30859 q 0,1.44531 0.25391,2.61719 0.25391,1.15234 0.78125,1.95312 0.52734,0.80078 1.32812,1.23047 0.82032,0.42969 1.91407,0.42969 z"
     style="font-style:normal;font-variant:normal;font-weight:normal;font-stretch:normal;font-family:Crushed;-inkscape-font-specification:Crushed;letter-spacing:3.12697959px;fill:#ffffff"
     id="path914" /><path
     d="m 276.09393,762.61185 v 2.28516 h -7.77343 q -0.11719,2.24609 -0.17579,4.49218 -0.0391,2.22657 -0.0586,4.33594 h 7.44141 v 2.28516 h -7.44141 q 0,2.51953 0.0391,5.41015 0.0391,2.8711 0.17578,5.74219 h 7.91016 v 2.28516 h -11.44531 q 0.11719,-1.66016 0.17578,-3.39844 0.0781,-1.75781 0.11719,-3.47656 0.0391,-1.73828 0.0586,-3.39844 0.0195,-1.66016 0.0195,-3.16406 0,-1.50391 -0.0195,-3.16406 -0.0195,-1.66016 -0.0586,-3.37891 -0.0391,-1.71875 -0.11719,-3.45703 -0.0586,-1.73828 -0.17578,-3.39844 z"
     style="font-style:normal;font-variant:normal;font-weight:normal;font-stretch:normal;font-family:Crushed;-inkscape-font-specification:Crushed;letter-spacing:3.12697959px;fill:#ffffff"
     id="path916" /></g><g
   aria-label=";"
   transform="matrix(2.1493889,0,0,2.1493889,-274.04635,-1495.997)"
   style="font-style:normal;font-variant:normal;font-weight:normal;font-stretch:normal;font-size:40px;line-height:1.25;font-family:'Bernard MT Condensed';-inkscape-font-specification:'Bernard MT Condensed, ';letter-spacing:0px;word-spacing:0px;fill:url(#linearGradient954);fill-opacity:1;stroke:none;stroke-width:0.11392991;stroke-miterlimit:4;stroke-dasharray:none;stroke-dashoffset:0"
   id="flowRoot1000"><path
     d="m 277.85677,866.73669 q 1.95313,0 3.20313,1.53646 1.25,1.51042 1.25,3.69792 0,2.10937 -1.30209,3.77604 -1.30208,1.64062 -3.15104,1.64062 -1.82292,0 -2.99479,-1.45833 -1.17188,-1.48437 -1.17188,-3.69792 0,-2.1875 1.1198,-3.82812 1.11979,-1.66667 3.04687,-1.66667 z m -4.375,24.375 q 0,-1.5625 0.98958,-2.8125 0.98959,-1.27604 2.83855,-1.27604 2.16145,0 3.61979,1.71875 1.48437,1.69271 1.48437,4.53125 0,4.08854 -2.73437,7.26563 -2.73438,3.20312 -3.82813,3.20312 -0.52083,0 -1.17187,-0.65104 -0.65104,-0.65104 -0.65104,-0.91146 0,-0.33854 0.52083,-0.85937 2.39583,-2.23959 2.39583,-4.45313 0,-0.57291 -0.26041,-1.06771 -0.23438,-0.49479 -1.22396,-1.30208 -0.98959,-0.80729 -1.48438,-1.5625 -0.49479,-0.78125 -0.49479,-1.82292 z"
     style="font-style:normal;font-variant:normal;font-weight:normal;font-stretch:normal;font-size:53.33333588px;font-family:'Bernard MT Condensed';-inkscape-font-specification:'Bernard MT Condensed, ';fill:url(#linearGradient954);fill-opacity:1;stroke:none;stroke-width:0.11392991;stroke-miterlimit:4;stroke-dasharray:none;stroke-dashoffset:0"
     id="path919" /></g></svg>